<svg width="42" height="54" fill="none" xmlns="http://www.w3.org/2000/svg"><path d="M16.135 23.097l4.33-3.997a8.136 8.136 0 002.39-4.096 8.179 8.179 0 00-.293-4.742l-1.846-4.967a7.762 7.762 0 00-3.82-4.25 7.675 7.675 0 00-5.672-.462C4.304 2.715-1.015 9.193.623 16.887c1.076 5.06 3.137 11.413 7.04 18.172 3.911 6.775 8.38 11.78 12.21 15.297 5.782 5.3 14.049 3.976 19.367-1.02a7.736 7.736 0 002.419-5.134 7.75 7.75 0 00-1.73-5.41l-3.387-4.143a8.062 8.062 0 00-3.934-2.631 8.009 8.009 0 00-4.723.04l-5.597 1.775a26.905 26.905 0 01-3.774-4.968 25.57 25.57 0 01-2.38-5.772v.004z" fill="#fff"/></svg>