<?xml version="1.0" encoding="utf-8"?><svg viewBox="0 0 56 58" xmlns="http://www.w3.org/2000/svg" xmlns:xlink="http://www.w3.org/1999/xlink"><style>:root>svg{display:none}:root>svg:target{display:block}</style><svg viewBox="0 0 52 38" id="mail" xmlns="http://www.w3.org/2000/svg"><path d="M.46 14.427v13.695c0 2.419 1.009 4.739 2.805 6.45 1.796 1.71 4.232 2.671 6.772 2.671h31.926c2.54 0 4.976-.96 6.772-2.671 1.797-1.711 2.806-4.031 2.806-6.45V14.427L27.309 24.814a3.329 3.329 0 01-2.618 0L.46 14.427zm.236-6.568L26 18.71 51.304 7.86c-.48-2.017-1.667-3.819-3.364-5.11A9.883 9.883 0 0041.963.758H10.037c-2.172 0-4.28.702-5.977 1.993C2.363 4.04 1.176 5.842.696 7.86z"/></svg><svg viewBox="0 0 42 54" id="phone" xmlns="http://www.w3.org/2000/svg"><path d="M16.135 23.097l4.33-3.997a8.136 8.136 0 002.39-4.096 8.179 8.179 0 00-.293-4.742l-1.846-4.967a7.762 7.762 0 00-3.82-4.25 7.675 7.675 0 00-5.672-.462C4.304 2.715-1.015 9.193.623 16.887c1.076 5.06 3.137 11.413 7.04 18.172 3.911 6.775 8.38 11.78 12.21 15.297 5.782 5.3 14.049 3.976 19.367-1.02a7.736 7.736 0 002.419-5.134 7.75 7.75 0 00-1.73-5.41l-3.387-4.143a8.062 8.062 0 00-3.934-2.631 8.009 8.009 0 00-4.723.04l-5.597 1.775a26.905 26.905 0 01-3.774-4.968 25.57 25.57 0 01-2.38-5.772v.004z"/></svg><svg viewBox="0 0 48 58" id="secure-badget" xmlns="http://www.w3.org/2000/svg"><path fill-rule="evenodd" clip-rule="evenodd" d="M6.498 3.917c1.941-.977 6.782-2.225 10.706-2.76C25.12.08 36.557 1.336 41.72 3.848c2.844 1.384 5.351 4.838 5.78 7.962.262 1.907-1.274 26.824-1.792 29.076-.474 2.06-1.803 4.485-3.187 5.817-.941.907-14.088 9.062-16.042 9.951a5.62 5.62 0 01-4.664 0c-1.954-.89-15.1-9.044-16.042-9.95-1.384-1.332-2.713-3.758-3.187-5.818C2.069 38.64.532 13.475.802 11.675c.457-3.048 2.87-6.334 5.696-7.758zm30.078 21.135a3.326 3.326 0 000-4.707 3.336 3.336 0 00-4.713 0l-9.642 9.63-5.642-5.636a3.336 3.336 0 00-4.713 0 3.326 3.326 0 000 4.708l7.999 7.989a3.335 3.335 0 004.713 0l11.998-11.984z"/></svg><svg viewBox="0 0 52 45" id="telegram" xmlns="http://www.w3.org/2000/svg"><path d="M47.66.612L2.412 18.445c-3.088 1.268-3.07 3.028-.566 3.813l11.617 3.704L40.34 8.63c1.27-.79 2.432-.365 1.478.5L20.042 29.218h-.005l.005.003-.801 12.238c1.174 0 1.692-.55 2.35-1.2l5.643-5.608 11.736 8.86c2.165 1.219 3.719.593 4.257-2.047l7.705-37.11c.789-3.232-1.207-4.695-3.272-3.74z"/></svg><svg viewBox="0 0 56 34" id="vk" xmlns="http://www.w3.org/2000/svg"><path fill-rule="evenodd" clip-rule="evenodd" d="M54.691 2.892c.387-1.272 0-2.21-1.853-2.21h-6.12c-1.557 0-2.275.81-2.664 1.702 0 0-3.112 7.45-7.52 12.29-1.426 1.403-2.075 1.848-2.853 1.848-.39 0-.974-.445-.974-1.72V2.892c0-1.529-.43-2.21-1.726-2.21H21.36c-.972 0-1.557.71-1.557 1.383 0 1.447 2.205 1.783 2.431 5.858v8.853c0 1.942-.357 2.294-1.135 2.294-2.075 0-7.122-7.485-10.117-16.05C10.4 1.355 9.813.683 8.249.683H2.125C.377.682.027 1.492.027 2.384c0 1.59 2.075 9.488 9.662 19.933 5.059 7.133 12.18 11 18.668 11 3.89 0 4.37-.857 4.37-2.337v-5.392c0-1.718.369-2.06 1.602-2.06.91 0 2.464.447 6.096 3.885 4.15 4.077 4.832 5.905 7.168 5.905h6.119c1.748 0 2.625-.858 2.121-2.555-.555-1.688-2.536-4.138-5.163-7.045-1.427-1.655-3.567-3.438-4.217-4.33-.907-1.146-.648-1.656 0-2.675 0 0 7.46-10.317 8.236-13.82h.002z"/></svg><svg viewBox="0 0 52 52" id="whatsapp" xmlns="http://www.w3.org/2000/svg"><path d="M47.72 12.272C40.08.459 24.48-3.053 12.38 4.29.6 11.633-3.22 27.596 4.42 39.41l.638.958-2.547 9.577 9.55-2.554.956.639c4.139 2.234 8.596 3.512 13.054 3.512 4.775 0 9.551-1.277 13.69-3.832 11.78-7.662 15.282-23.306 7.96-35.437zm-6.686 24.583c-1.273 1.915-2.865 3.192-5.094 3.512-1.273 0-2.865.638-9.233-1.916-5.412-2.554-9.87-6.704-13.053-11.493-1.91-2.235-2.866-5.109-3.184-7.982 0-2.554.955-4.789 2.547-6.385.637-.639 1.274-.958 1.91-.958h1.592c.637 0 1.274 0 1.592 1.277.637 1.597 2.229 5.428 2.229 5.747.318.32.318.958 0 1.277.318.638 0 1.277-.319 1.596-.318.32-.636.958-.955 1.277-.636.32-.955.958-.636 1.597a36.725 36.725 0 004.457 5.427c1.91 1.596 3.82 2.873 6.049 3.831.637.32 1.273.32 1.592-.32.318-.638 1.91-2.234 2.547-2.873.637-.638.955-.638 1.592-.319l5.094 2.554c.637.32 1.273.639 1.592.958.318.958.318 2.235-.319 3.193z"/></svg></svg>