<svg width="56" height="34" fill="none" xmlns="http://www.w3.org/2000/svg"><path fill-rule="evenodd" clip-rule="evenodd" d="M54.691 2.892c.387-1.272 0-2.21-1.853-2.21h-6.12c-1.557 0-2.275.81-2.664 1.702 0 0-3.112 7.45-7.52 12.29-1.426 1.403-2.075 1.848-2.853 1.848-.39 0-.974-.445-.974-1.72V2.892c0-1.529-.43-2.21-1.726-2.21H21.36c-.972 0-1.557.71-1.557 1.383 0 1.447 2.205 1.783 2.431 5.858v8.853c0 1.942-.357 2.294-1.135 2.294-2.075 0-7.122-7.485-10.117-16.05C10.4 1.355 9.813.683 8.249.683H2.125C.377.682.027 1.492.027 2.384c0 1.59 2.075 9.488 9.662 19.933 5.059 7.133 12.18 11 18.668 11 3.89 0 4.37-.857 4.37-2.337v-5.392c0-1.718.369-2.06 1.602-2.06.91 0 2.464.447 6.096 3.885 4.15 4.077 4.832 5.905 7.168 5.905h6.119c1.748 0 2.625-.858 2.121-2.555-.555-1.688-2.536-4.138-5.163-7.045-1.427-1.655-3.567-3.438-4.217-4.33-.907-1.146-.648-1.656 0-2.675 0 0 7.46-10.317 8.236-13.82h.002z" fill="#fff"/></svg>