<svg width="52" height="52" fill="none" xmlns="http://www.w3.org/2000/svg"><path d="M47.72 12.272C40.08.459 24.48-3.053 12.38 4.29.6 11.633-3.22 27.596 4.42 39.41l.638.958-2.547 9.577 9.55-2.554.956.639c4.139 2.234 8.596 3.512 13.054 3.512 4.775 0 9.551-1.277 13.69-3.832 11.78-7.662 15.282-23.306 7.96-35.437zm-6.686 24.583c-1.273 1.915-2.865 3.192-5.094 3.512-1.273 0-2.865.638-9.233-1.916-5.412-2.554-9.87-6.704-13.053-11.493-1.91-2.235-2.866-5.109-3.184-7.982 0-2.554.955-4.789 2.547-6.385.637-.639 1.274-.958 1.91-.958h1.592c.637 0 1.274 0 1.592 1.277.637 1.597 2.229 5.428 2.229 5.747.318.32.318.958 0 1.277.318.638 0 1.277-.319 1.596-.318.32-.636.958-.955 1.277-.636.32-.955.958-.636 1.597a36.725 36.725 0 004.457 5.427c1.91 1.596 3.82 2.873 6.049 3.831.637.32 1.273.32 1.592-.32.318-.638 1.91-2.234 2.547-2.873.637-.638.955-.638 1.592-.319l5.094 2.554c.637.32 1.273.639 1.592.958.318.958.318 2.235-.319 3.193z" fill="#fff"/></svg>